mac2015@ubuntu:~/dev$ mediainfo not_working.wav 
General
Complete name                            : not_working.wav
Format                                   : Wave
File size                                : 5.49 MiB
Duration                                 : 30 s 0 ms
Overall bit rate mode                    : Constant
Overall bit rate                         : 1 536 kb/s
Writing application                      : Lavf57.83.100

Audio
Format                                   : PCM
Format settings                          : Little / Signed
Codec ID                                 : 1
Duration                                 : 30 s 0 ms
Bit rate mode                            : Constant
Bit rate                                 : 1 536 kb/s
Channel(s)                               : 2 channels
Sampling rate                            : 48.0 kHz
Bit depth                                : 16 bits
Stream size                              : 5.49 MiB (100%)

mac2015@ubuntu:~/dev$ mediainfo working.wav
General
Complete name                            : working.wav
Format                                   : Wave
File size                                : 1.15 MiB
Duration                                 : 6 s 306 ms
Overall bit rate mode                    : Constant
Overall bit rate                         : 1 536 kb/s

Audio
Format                                   : PCM
Format settings                          : Little / Signed
Codec ID                                 : 1
Duration                                 : 6 s 306 ms
Bit rate mode                            : Constant
Bit rate                                 : 1 536 kb/s
Channel(s)                               : 2 channels
Sampling rate                            : 48.0 kHz
Bit depth                                : 16 bits
Stream size                              : 1.15 MiB (100%)
